<svg width="53" height="53" viewBox="0 0 53 53" fill="none" xmlns="http://www.w3.org/2000/svg">
<path d="M50.0774 13.2261L50.0774 13.2266C50.0491 14.4013 49.0758 15.3324 47.9005 15.3068L47.8997 15.3068C46.725 15.2784 45.7939 14.3051 45.8195 13.1299L45.8195 13.1295L45.835 12.4472L35.0364 23.7146C35.0363 23.7147 35.0363 23.7148 35.0362 23.7149C34.6102 24.1605 34.0113 24.399 33.3954 24.368C32.7783 24.3393 32.2052 24.0409 31.8252 23.5561C31.8251 23.556 31.8251 23.5559 31.825 23.5559L25.7748 15.8549H19.5094C19.0503 15.8549 18.6014 15.7074 18.2314 15.4286C18.2314 15.4286 18.2313 15.4285 18.2313 15.4285L3.63705 4.48208C3.63699 4.48203 3.63692 4.48199 3.63686 4.48194C2.69412 3.77755 2.50412 2.44052 3.2108 1.50081C3.91543 0.560648 5.24939 0.371452 6.19086 1.07472L6.1914 1.07513L20.2191 11.5967H26.8084C27.464 11.5967 28.0802 11.8977 28.4833 12.4114L33.6591 18.9995L43.1144 9.1319L41.9771 9.10607L41.9766 9.10605C40.8018 9.07768 39.8708 8.10436 39.8964 6.92913L39.8964 6.92829C39.9248 5.75356 40.8981 4.8225 42.0733 4.84805L42.0737 4.84806L48.1363 4.98801L48.1368 4.98802L48.1287 5.33792C49.1108 5.35927 49.8888 6.17291 49.8651 7.15497L50.0774 13.2261ZM50.0774 13.2261L50.215 7.16342L50.0774 13.2261ZM12.2071 49.004V20.204C12.2071 18.3575 10.7103 16.858 8.86112 16.858H3.99595C2.14675 16.858 0.65 18.3575 0.65 20.204V49.004C0.65 50.853 2.14693 52.35 3.99595 52.35H8.86112C10.7101 52.35 12.2071 50.853 12.2071 49.004ZM38.969 49.004V34.8021C38.969 33.9146 38.6166 33.0641 37.9888 32.4363C37.3611 31.8085 36.5106 31.4561 35.6231 31.4561H30.7579C29.8704 31.4561 29.0199 31.8085 28.3921 32.4363C27.7644 33.0641 27.412 33.9146 27.412 34.8021V49.004C27.412 49.8915 27.7644 50.742 28.3921 51.3698C29.0199 51.9976 29.8704 52.35 30.7579 52.35H35.6231C36.5106 52.35 37.3611 51.9976 37.9888 51.3698C38.6166 50.742 38.969 49.8915 38.969 49.004ZM25.588 49.004V27.5031C25.588 25.6566 24.0913 24.1571 22.2421 24.1571H17.3769C16.4894 24.1571 15.639 24.5095 15.0112 25.1373C14.3834 25.7651 14.031 26.6155 14.031 27.5031V49.004C14.031 50.853 15.5279 52.35 17.3769 52.35H22.2421C24.0911 52.35 25.588 50.853 25.588 49.004ZM52.35 49.004V27.5031C52.35 25.6566 50.8532 24.1571 49.004 24.1571H44.1389C43.2514 24.1571 42.4009 24.5095 41.7731 25.1373C41.1453 25.7651 40.7929 26.6155 40.7929 27.5031V49.004C40.7929 50.853 42.2899 52.35 44.1389 52.35H49.004C50.8531 52.35 52.35 50.853 52.35 49.004Z" stroke="#BDD700" stroke-width="0.7"/>
</svg>
