<svg width="54" height="53" viewBox="0 0 54 53" fill="none" xmlns="http://www.w3.org/2000/svg">
<path d="M24.8569 25.757L24.9594 25.6545V25.5095V17.7344C24.9594 16.6077 25.8708 15.6938 27 15.6938C28.1292 15.6938 29.0406 16.6077 29.0406 17.7344V26.5C29.0406 27.0404 28.8232 27.56 28.4414 27.9431L24.5532 31.8306L24.553 31.8307C23.7574 32.6271 22.4651 32.6271 21.6695 31.8307C20.8737 31.0343 20.8737 29.741 21.6694 28.9445C21.6694 28.9444 21.6694 28.9444 21.6695 28.9444L24.8569 25.757ZM5.13438 4.1875V13.5309C5.13438 14.7342 5.92015 15.7966 7.07098 16.1501C8.22208 16.5044 9.46482 16.0666 10.1407 15.0719C13.8078 9.67707 19.9969 6.13125 27 6.13125C38.2419 6.13125 47.3688 15.2581 47.3688 26.5C47.3688 37.7419 38.2419 46.8688 27 46.8688C15.7581 46.8688 6.63125 37.7419 6.63125 26.5C6.63125 24.9874 5.40704 23.7594 3.89062 23.7594C2.37421 23.7594 1.15 24.9874 1.15 26.5C1.15 40.7669 12.7339 52.35 27 52.35C41.2661 52.35 52.85 40.7669 52.85 26.5C52.85 12.2331 41.2661 0.65 27 0.65C20.7861 0.65 15.0757 2.84827 10.6156 6.50987V4.1875C10.6156 2.67488 9.39142 1.44688 7.875 1.44688C6.35858 1.44688 5.13438 2.67488 5.13438 4.1875ZM43.2875 26.5C43.2875 17.5108 35.9908 10.2125 27 10.2125C18.0092 10.2125 10.7125 17.5108 10.7125 26.5C10.7125 35.4892 18.0092 42.7875 27 42.7875C35.9908 42.7875 43.2875 35.4892 43.2875 26.5Z" stroke="#BDD700" stroke-width="0.7"/>
</svg>
