<svg width="51" height="51" viewBox="0 0 51 51" fill="none" xmlns="http://www.w3.org/2000/svg">
<path d="M28.9022 27.8901L28.9025 27.8874C29.0387 26.7982 29.769 25.8698 30.8086 25.4861L30.8094 25.4858L33.0389 24.6693C31.1247 21.8871 29.0507 19.6352 27.4146 18.043C26.7942 18.363 26.0909 18.5393 25.3772 18.5393H11.5886C11.1761 18.5393 10.7744 18.4876 10.3932 18.3735C3.70214 23.7198 1.37839 29.4499 0.823006 34.2517C0.31035 38.6841 1.30014 42.346 1.81421 44.2479C1.86288 44.428 1.90728 44.5923 1.94575 44.7399M28.9022 27.8901L1.6071 44.8284M28.9022 27.8901C28.796 28.7976 28.2464 29.5801 27.4332 29.9968M28.9022 27.8901L27.5917 30.3089M1.94575 44.7399C1.94577 44.74 1.94578 44.7401 1.9458 44.7402L1.6071 44.8284M1.94575 44.7399C1.94571 44.7398 1.94567 44.7397 1.94564 44.7395L1.6071 44.8284M1.94575 44.7399C2.48737 46.8034 3.27985 48.6464 4.77359 49.7024C6.24784 50.7447 8.50158 51.0833 12.124 49.9062L12.1242 49.9062C15.8728 48.69 20.3038 48.7004 24.1081 48.9421C25.3944 49.0239 26.6194 49.133 27.7235 49.2314C28.252 49.2785 28.7528 49.3231 29.2194 49.361C30.6837 49.4802 31.7818 49.5303 32.4146 49.4151M1.6071 44.8284C2.69797 48.9847 4.87972 52.6281 12.2322 50.2391C17.1568 48.6413 23.3209 49.1905 27.6861 49.5794H27.6861C29.8478 49.772 31.5683 49.9253 32.4788 49.7591M32.4146 49.4151C32.4142 49.4151 32.4138 49.4152 32.4133 49.4153L32.4788 49.7591M32.4146 49.4151C32.4151 49.415 32.4155 49.4149 32.4159 49.4148L32.4788 49.7591M32.4146 49.4151C32.4344 49.4113 32.4543 49.4073 32.4744 49.4032M32.4788 49.7591C32.5874 49.7385 32.7008 49.7129 32.818 49.6812C32.7022 49.5895 32.5877 49.4968 32.4744 49.4032M32.4744 49.4032C32.6082 49.3758 32.7489 49.3402 32.8944 49.2943C28.6539 45.8758 26.1845 41.144 26.1845 36.0905V32.6107C26.1845 31.6288 26.7299 30.7452 27.5917 30.3089M32.4744 49.4032C28.2848 45.9402 25.8345 41.1829 25.8345 36.0905V32.6107C25.8345 31.4977 26.4534 30.4931 27.4332 29.9968M27.4332 29.9968C27.4328 29.997 27.4325 29.9972 27.4322 29.9973L27.5917 30.3089M27.4332 29.9968C27.4333 29.9968 27.4334 29.9967 27.4336 29.9966L27.5917 30.3089M39.4765 25.0395L39.4765 25.0394C39.2738 24.9614 39.047 24.9614 38.8443 25.0394L38.8388 25.0415L38.8387 25.0415L31.6207 27.6801C31.3965 27.7679 31.2495 27.9578 31.2226 28.1695C31.0231 29.8456 29.9921 31.3096 28.4932 32.0712M39.4765 25.0395L28.4919 32.0718C28.4923 32.0716 28.4928 32.0714 28.4932 32.0712M39.4765 25.0395L39.482 25.0415L46.7001 27.6801C46.9242 27.7679 47.0712 27.9578 47.0981 28.1695C47.2976 29.8442 48.3166 31.3091 49.828 32.0714C50.0249 32.174 50.15 32.3794 50.15 32.6107V36.0905C50.15 42.1077 46.0941 47.6708 39.5381 50.5731C39.3002 50.6757 39.0202 50.6756 38.7823 50.573M39.4765 25.0395L38.7823 50.573M28.4932 32.0712C28.2961 32.1737 28.1708 32.3792 28.1708 32.6107V36.0905C28.1708 42.1076 32.2265 47.6706 38.7823 50.573M28.4932 32.0712L38.7823 50.573M17.668 2.44067L17.6695 2.44177C18.1981 2.84858 18.9115 2.73331 19.3016 2.24135C19.7086 1.73814 19.6136 0.992372 19.1018 0.60119C19.0588 0.56683 19.0143 0.531773 18.969 0.496499C19.8211 0.249925 20.8312 0.254594 21.8314 0.984368C22.4599 1.45256 23.1632 1.82008 23.951 1.96331L23.951 1.96339L23.9587 1.96462C24.6542 2.07505 25.6336 2.20701 26.9951 2.31681C27.8709 2.39415 28.3902 3.32997 27.9986 4.11323L25.2156 9.66868H11.5886C11.0387 9.66868 10.4907 9.77716 9.9828 9.97767C8.8919 8.93816 7.75862 7.74795 7.00031 6.65614C6.20569 5.50027 6.84143 3.89149 8.21939 3.57469C8.82619 3.43678 9.50201 3.25846 10.1038 3.0386C10.693 2.82333 11.2603 2.55133 11.607 2.20459C11.7593 2.05232 11.8963 1.87816 12.0231 1.71075C12.0567 1.66628 12.0895 1.62251 12.1219 1.57931C12.2156 1.45423 12.3057 1.33401 12.403 1.21569C12.6615 0.90131 12.9266 0.658013 13.2726 0.540591C13.6129 0.425097 14.0866 0.413485 14.7955 0.678547C15.5093 0.945433 16.4392 1.48499 17.668 2.44067ZM34.0312 38.9343L34.0318 38.9348L36.682 41.5742C36.8997 41.7919 37.1957 41.9167 37.5077 41.9167C37.8197 41.9167 38.1157 41.7919 38.3333 41.5742L44.2568 35.6508C44.7121 35.1954 44.7062 34.4643 44.2609 34.0037L44.2611 34.0036L44.2526 33.9953C43.792 33.55 43.0608 33.5441 42.6055 33.9995L37.5071 39.0979L35.6826 37.283C35.2295 36.8299 34.4842 36.8299 34.0312 37.283C33.5782 37.7361 33.5783 38.4812 34.0312 38.9343ZM22.8364 36.8978C22.8364 34.5445 20.9343 32.6424 18.5811 32.6424C17.5308 32.6424 16.673 31.7846 16.673 30.7343C16.673 29.6721 17.5319 28.8153 18.5811 28.8153C19.6423 28.8153 20.5001 29.6732 20.5001 30.7343C20.5001 31.3749 21.0277 31.9025 21.6683 31.9025C22.3227 31.9025 22.8364 31.3719 22.8364 30.7343C22.8364 28.7899 21.535 27.1459 19.7492 26.6421V25.8691C19.7492 25.2145 19.2186 24.7009 18.5811 24.7009C17.9436 24.7009 17.4129 25.2145 17.4129 25.8691V26.6425C15.637 27.1469 14.3366 28.7908 14.3366 30.7343C14.3366 33.0767 16.2388 34.9787 18.5811 34.9787C19.6423 34.9787 20.5001 35.8366 20.5001 36.8978C20.5001 37.947 19.6434 38.8059 18.5811 38.8059C17.5308 38.8059 16.673 37.9481 16.673 36.8978C16.673 36.2572 16.1454 35.7296 15.5048 35.7296C14.8643 35.7296 14.3366 36.2572 14.3366 36.8978C14.3366 38.8314 15.6375 40.4744 17.4129 40.9787V41.7522C17.4129 42.4067 17.9436 42.9203 18.5811 42.9203C19.2186 42.9203 19.7492 42.4066 19.7492 41.7522V40.9791C21.5345 40.4755 22.8364 38.8323 22.8364 36.8978ZM27.4761 14.1072C27.4761 15.2843 26.5194 16.2055 25.3778 16.2055H11.5919C10.4386 16.2055 9.49349 15.2694 9.49349 14.1072C9.49349 13.5338 9.72756 13.0137 10.1094 12.6216C10.4874 12.2444 11.0163 12.0088 11.5919 12.0088H25.3778C26.5299 12.0088 27.4761 12.955 27.4761 14.1072Z" stroke="#BDD700" stroke-width="0.7"/>
</svg>
