<svg width="54" height="53" viewBox="0 0 54 53" fill="none" xmlns="http://www.w3.org/2000/svg">
<path d="M14.5688 52.3699H15.0543L14.9008 51.9093C14.7446 51.4408 14.6 50.8466 14.6 50.4262V37.1981V36.8481H14.25H3.09375C2.12671 36.8481 1.15 37.6199 1.15 38.7918V50.4262C1.15 50.9385 1.40261 51.4214 1.75056 51.7694C2.09851 52.1173 2.58148 52.3699 3.09375 52.3699H14.5688ZM39.0992 51.9093L38.9456 52.3699H39.4312H50.9063C51.4185 52.3699 51.9015 52.1173 52.2494 51.7694C52.5974 51.4214 52.85 50.9385 52.85 50.4262V40.8637C52.85 39.6918 51.8733 38.9199 50.9063 38.9199H39.75H39.4V39.2699V50.4262C39.4 50.8466 39.2554 51.4408 39.0992 51.9093ZM40.1531 12.4275L40.1569 12.4237C40.5838 11.9968 40.7488 11.222 40.5677 10.4976C40.3649 9.68649 39.744 9.30377 39.038 9.12727L39.0221 9.12328L39.0058 9.1208L31.856 8.03279L28.7525 1.67061C28.4394 0.951014 27.6871 0.630103 27 0.630103C26.3129 0.630103 25.5606 0.951014 25.2475 1.67061L22.144 8.03279L14.9942 9.1208L14.978 9.12328L14.962 9.12727C14.256 9.30377 13.6351 9.68649 13.4323 10.4976C13.2512 11.222 13.4162 11.9968 13.8431 12.4237L13.8488 12.4294L13.8548 12.4348L19.1316 17.2461L17.8916 24.3762C17.7023 25.1589 18.0842 25.9203 18.649 26.3134C19.2481 26.891 20.0489 26.8891 20.642 26.5041L26.9962 23.2495L33.3689 26.669L33.3953 26.6831L33.4237 26.6926C33.7113 26.7885 34.0758 26.8318 34.4328 26.8095C34.7872 26.7873 35.1733 26.698 35.4816 26.4924C36.0621 26.1054 36.4603 25.3315 36.2678 24.5356L35.0265 17.3986L40.153 12.4275L40.1531 12.4275ZM36.9125 50.4262V31.3012C36.9125 30.1293 35.9358 29.3574 34.9688 29.3574H19.0313C18.0642 29.3574 17.0875 30.1293 17.0875 31.3012V50.4262C17.0875 50.9385 17.3401 51.4214 17.6881 51.7694C18.036 52.1173 18.519 52.3699 19.0313 52.3699H34.9688C35.481 52.3699 35.964 52.1173 36.3119 51.7694C36.6599 51.4214 36.9125 50.9385 36.9125 50.4262Z" stroke="#BDD700" stroke-width="0.7"/>
</svg>
