<svg width="59" height="51" viewBox="0 0 59 51" fill="none" xmlns="http://www.w3.org/2000/svg">
<path d="M33.6384 33.1101L33.6384 33.11L36.6738 31.4327V28.4902L27.9715 19.7852C27.0478 18.8647 27.0477 17.3649 27.971 16.4442C28.8916 15.521 30.3911 15.521 31.3116 16.4442L33.6384 33.1101ZM33.6384 33.1101C31.2096 34.4531 28.0731 34.4531 25.6443 33.1101L25.6442 33.11M33.6384 33.1101L25.6442 33.11M25.6442 33.11L3.32515 20.7773C3.32512 20.7773 3.32509 20.7773 3.32505 20.7773C1.91121 19.9954 1.13265 18.6382 1.13265 17.234C1.13265 15.8269 1.91139 14.47 3.32474 13.6909L3.32508 13.6907M25.6442 33.11L3.32508 13.6907M3.32508 13.6907L25.6441 1.35541M3.32508 13.6907L25.6441 1.35541M25.6441 1.35541C28.0729 0.0148976 31.2095 0.0148642 33.6384 1.35531L25.6441 1.35541ZM41.4006 32.6886L50.0964 27.8835V35.564C50.0964 40.5855 46.2882 44.7174 41.4006 45.2284V32.6886ZM40.7006 45.9759V45.9833V48.9866C40.7006 49.9047 39.9553 50.65 39.0372 50.65C38.1191 50.65 37.3738 49.9047 37.3738 48.9866V45.9809H40.3794C40.4872 45.9809 40.5942 45.9792 40.7006 45.9759ZM9.18624 35.564V27.8835L24.0064 36.0717C27.4352 37.9661 31.8475 37.9661 35.2763 36.0717L36.6738 35.3005V45.2809H18.9032C13.5369 45.2809 9.18624 40.9303 9.18624 35.564ZM40.7066 25.8392L31.312 16.4447L33.6386 1.35541L55.9576 13.6907L55.9579 13.6909C57.3713 14.47 58.15 15.8269 58.15 17.234C58.15 18.6382 57.3715 19.9954 55.9576 20.7773C55.9576 20.7773 55.9576 20.7773 55.9575 20.7773L41.4006 28.8204V27.5104C41.4006 26.8839 41.152 26.2817 40.7072 25.8398C40.707 25.8396 40.7068 25.8394 40.7066 25.8392Z" stroke="#BDD700" stroke-width="0.7"/>
</svg>
