<svg width="54" height="53" viewBox="0 0 54 53" fill="none" xmlns="http://www.w3.org/2000/svg">
<path d="M33.0358 18.6247L33.0338 18.6267C32.8508 18.8112 32.6331 18.9576 32.3933 19.0575C32.1534 19.1575 31.8962 19.2089 31.6364 19.2089C31.3765 19.2089 31.1193 19.1575 30.8794 19.0575C30.6403 18.9579 30.4231 18.812 30.2405 18.6282C30.24 18.6277 30.2395 18.6272 30.239 18.6267L29.5698 17.9345L28.9682 17.3121V18.1777V31.1364C28.9682 31.6584 28.7608 32.159 28.3917 32.5281C28.0226 32.8972 27.522 33.1045 27 33.1045C26.478 33.1045 25.9774 32.8972 25.6083 32.5281C25.2392 32.159 25.0318 31.6584 25.0318 31.1364V18.1777V17.3121L24.4302 17.9345L23.7601 18.6277C23.3894 18.9973 22.8872 19.2049 22.3636 19.2049C21.8391 19.2049 21.3361 18.9966 20.9652 18.6257C20.5943 18.2548 20.386 17.7518 20.386 17.2273C20.386 16.7028 20.5943 16.1997 20.9652 15.8289L25.6016 11.1925L25.6026 11.1915C25.7856 11.007 26.0032 10.8606 26.2431 10.7607C26.4829 10.6607 26.7402 10.6093 27 10.6093C27.2598 10.6093 27.5171 10.6607 27.7569 10.7607C27.9968 10.8606 28.2144 11.007 28.3974 11.1915L28.3984 11.1925L33.0348 15.8289L33.0358 15.8299C33.2203 16.0128 33.3667 16.2305 33.4666 16.4704C33.5665 16.7102 33.618 16.9675 33.618 17.2273C33.618 17.4871 33.5665 17.7443 33.4666 17.9842C33.3667 18.224 33.2203 18.4417 33.0358 18.6247ZM40.9091 0.65H13.0909C11.5228 0.65 9.97006 0.958861 8.52132 1.55895C7.07258 2.15903 5.75623 3.0386 4.64741 4.14741C2.40806 6.38677 1.15 9.42398 1.15 12.5909V31.1364C1.15 34.3033 2.40806 37.3405 4.64741 39.5799C5.75623 40.6887 7.07258 41.5682 8.52132 42.1683C9.97006 42.7684 11.5228 43.0773 13.0909 43.0773H40.9091C42.4772 43.0773 44.0299 42.7684 45.4787 42.1683C46.9274 41.5682 48.2438 40.6887 49.3526 39.5799C50.4614 38.471 51.341 37.1547 51.9411 35.706C52.5411 34.2572 52.85 32.7045 52.85 31.1364V12.5909C52.85 11.0228 52.5411 9.47006 51.9411 8.02132C51.341 6.57258 50.4614 5.25623 49.3526 4.14741C48.2438 3.0386 46.9274 2.15903 45.4787 1.55895C44.0299 0.958861 42.4772 0.65 40.9091 0.65ZM13.0909 52.35H40.9091C41.6167 52.35 42.2954 52.0689 42.7958 51.5685C43.2962 51.0681 43.5773 50.3895 43.5773 49.6818C43.5773 48.9742 43.2962 48.2955 42.7958 47.7951C42.2954 47.2947 41.6167 47.0136 40.9091 47.0136H13.0909C12.3833 47.0136 11.7046 47.2947 11.2042 47.7951C10.7038 48.2955 10.4227 48.9742 10.4227 49.6818C10.4227 50.3895 10.7038 51.0681 11.2042 51.5685C11.7046 52.0689 12.3833 52.35 13.0909 52.35Z" stroke="#BDD700" stroke-width="0.7"/>
</svg>
