<svg width="17" height="14" viewBox="0 0 17 14" fill="none" xmlns="http://www.w3.org/2000/svg">
<path d="M16.9817 5.41149L15.3953 13.4179C15.3638 13.5854 15.2822 13.7352 15.1645 13.8414C15.0468 13.9476 14.9003 14.0036 14.7504 13.9998H2.39446C2.24449 14.0036 2.09805 13.9476 1.98035 13.8414C1.86265 13.7352 1.78104 13.5854 1.74958 13.4179L0.214759 5.41149C0.188929 5.27621 0.197009 5.13534 0.238072 5.00507C0.279135 4.87479 0.351517 4.76037 0.446916 4.67493C0.542578 4.58919 0.657516 4.53608 0.778467 4.52175C0.899417 4.50741 1.02145 4.53243 1.13049 4.59391L4.89659 6.67838L8.01782 0.3734C8.07406 0.260044 8.15563 0.165758 8.25419 0.10016C8.35275 0.0345621 8.46479 0 8.57886 0C8.69294 0 8.80497 0.0345621 8.90354 0.10016C9.0021 0.165758 9.08367 0.260044 9.13991 0.3734L12.2611 6.68575L16.053 4.58654C16.1629 4.52005 16.2872 4.49122 16.411 4.50353C16.5348 4.51584 16.6529 4.56876 16.751 4.65591C16.8491 4.74307 16.9231 4.86076 16.964 4.9948C17.0049 5.12885 17.0111 5.27355 16.9817 5.41149Z" fill="#DAA520"/>
</svg>
