<svg width="16" height="14" viewBox="0 0 12 10" fill="none" xmlns="http://www.w3.org/2000/svg">
<path d="M11.9869 3.86535L10.8538 9.58424C10.8313 9.70389 10.773 9.81086 10.6889 9.88672C10.6049 9.96258 10.5003 10.0026 10.3932 9.99987H1.5675C1.46039 10.0026 1.35579 9.96258 1.27171 9.88672C1.18764 9.81086 1.12935 9.70389 1.10687 9.58424L0.0105772 3.86535C-0.00787271 3.76872 -0.00210145 3.6681 0.027229 3.57505C0.0565595 3.48199 0.108261 3.40026 0.176404 3.33923C0.244734 3.27799 0.326832 3.24006 0.413225 3.22982C0.499619 3.21958 0.586786 3.23745 0.664671 3.28136L3.35475 4.77027L5.58419 0.266714C5.62437 0.185746 5.68263 0.118399 5.75303 0.0715429C5.82343 0.0246872 5.90346 0 5.98494 0C6.06642 0 6.14645 0.0246872 6.21685 0.0715429C6.28725 0.118399 6.34551 0.185746 6.38569 0.266714L8.61513 4.77553L11.3236 3.2761C11.4021 3.22861 11.4909 3.20802 11.5793 3.21681C11.6678 3.2256 11.7521 3.2634 11.8222 3.32565C11.8922 3.38791 11.9451 3.47197 11.9743 3.56772C12.0035 3.66347 12.0079 3.76682 11.9869 3.86535Z" fill="#BDD700"/>
</svg>
